General
     Complete name : The.Crimson.Rivers.2000.BRRip.H264.AAC.5.1ch.Gopo.mp4
     Format : MPEG-4
     Format profile : Base Media
     Codec ID : isom
     File size : 1.80 GiB
     Duration : 1h 45mn
     Overall bit rate : 2 441 Kbps
     Encoded date : UTC 2010-02-13 11:25:45
     Tagged date : UTC 2010-02-13 11:25:45
  Video #1
     ID : 1
     Format : AVC
     Format/Info : Advanced Video Codec
     Format profile : High@L4.1
     Format settings, CABAC : Yes
     Format settings, ReFrames : 6 frames
     Codec ID : avc1
     Codec ID/Info : Advanced Video Coding
     Duration : 1h 45mn
     Bit rate mode : Variable
     Bit rate : 2 136 Kbps
     Maximum bit rate : 7 620 Kbps
     Width : 1 280 pixels
     Height : 544 pixels
     Display aspect ratio : 2.35:1
     Frame rate mode : Constant
     Frame rate : 24.000 fps
     Resolution : 24 bits
     Colorimetry : 4:2:0
     Scan type : Progressive
     Bits/(Pixel*Frame) : 0.128
     Stream size : 1.58 GiB (88%)
     Writing library : x264 core 84 r1416 fcf70c2
     Encoding settings : cabac=1 / ref=6 / deblock=1:-3:-1 / analyse=0x3:0x133 / me=umh / subme=8 / psy=1 / psy_rd=1.0:0.1 / mixed_ref=1 / me_range=32 / chroma_me=1 / trellis=2 / 8x8dct=1 / cqm=0 / deadzone=21,11 / fast_pskip=0 / chroma_qp_offset=-3 / threads=2 / sliced_threads=0 / nr=0 / decimate=1 / mbaff=0 / constrained_intra=0 / bframes=6 / b_pyramid=2 / b_adapt=2 / b_bias=0 / direct=1 / wpredb=1 / wpredp=2 / keyint=250 / keyint_min=25 / scenecut=40 / intra_refresh=0 / rc_lookahead=40 / rc=2pass / mbtree=1 / bitrate=2136 / ratetol=1.0 / qcomp=0.60 / qpmin=10 / qpmax=51 / qpstep=4 / cplxblur=20.0 / qblur=0.5 / vbv_maxrate=40000 / vbv_bufsize=40000 / ip_ratio=1.40 / aq=1:1.00
     Encoded date : UTC 2010-02-12 04:40:13
     Tagged date : UTC 2010-02-13 11:29:34
  Audio #2
     ID : 2
     Format : AAC
     Format/Info : Advanced Audio Codec
     Format version : Version 4
     Format profile : LC
     Format settings, SBR : No
     Codec ID : 40
     Duration : 1h 45mn
     Bit rate mode : Variable
     Bit rate : 301 Kbps
     Maximum bit rate : 365 Kbps
     Channel(s) : 6 channels
     Channel positions : Front: L C R, Rear: L R, LFE
     Sampling rate : 48.0 KHz
     Resolution : 16 bits
     Stream size : 228 MiB (12%)
     Encoded date : UTC 2010-02-13 11:28:44
     Tagged date : UTC 2010-02-13 11:29:34
Sample : YES
Subtitle : English,Romanian

PLOT
Two French policemen, one investigating a grisly murder at a remote mountain college, the other working on the desecration of a young girl's grave by skinheads, are brought together by the clues from their respective cases. Soon after they start working together, more murders are committed, and the pair begin to discover just what dark secrets are behind the killings.
Director: Mathieu Kassovitz
CASTING
   
Jean Reno ... Pierre Niemans
Vincent Cassel ... Max Kerkerian
Nadia Farès ... Fanny Ferreira (as Nadia Fares)
Dominique Sanda ... Sister Andrée
Karim Belkhadra ... Captain Dahmane
Jean-Pierre Cassel ... Dr. Bernard Chernezé
Didier Flamand ... The Dean
François Levantal ... Pathologist
Francine Bergé ... Headmistress
Philippe Nahon ... Man at Petrol Station
Laurent Lafitte ... Hubert, the Dean's Son
Robert Gendreu ... Cemetery Warden
Christophe Bernard ... Skinhead #1
Nicky Naude ... Skinhead #2
Tonio Descanvelle ... Sarzac Policeman #1

SOURCE: The.Crimson.Rivers.2000.720p.BluRay.x264-LCHD

Notes: For best performance I suggest you to use KMPlayer(find it with google) for playback
These movies were made especially for PC and they don't play on a PS3.If you want to re-encode for PS3 or test for other devices be my guests.